<svg width="151" height="151" viewBox="0 0 151 151" fill="none" xmlns="http://www.w3.org/2000/svg">
<path d="M78.1983 0C76.4708 0 75.0703 1.40052 75.0703 3.128V71.9419C75.0703 73.6694 76.4708 75.0699 78.1983 75.0699H147.012C148.74 75.0699 150.14 73.6694 150.14 71.9419C150.095 32.228 117.912 0.0448658 78.1983 0Z" fill="#FFC107"/>
<path d="M111.948 132.579L68.8139 77.128V9.38386C68.8139 7.65638 67.4134 6.25586 65.6859 6.25586C29.4648 6.25586 0 38.5296 0 78.1975C0.0448658 117.911 32.228 150.095 71.9416 150.139C86.3611 151.26 100.619 146.489 111.46 136.915C112.77 135.84 112.986 133.918 111.948 132.579Z" fill="#2196F3"/>
<path d="M147.01 81.3252H84.4523C82.7248 81.3255 81.3246 82.7263 81.3252 84.4538C81.3252 85.1684 81.5701 85.8613 82.019 86.4173L122.682 136.758C123.227 137.434 124.03 137.853 124.896 137.915H125.115C125.907 137.916 126.669 137.616 127.249 137.077C141.82 123.45 150.105 104.403 150.139 84.4529C150.138 82.7257 148.738 81.3252 147.01 81.3252Z" fill="#4CAF50"/>
</svg>
